<?xml version="1.0" encoding="utf-8"?>
<!-- Generator: Adobe Illustrator 16.0.0, SVG Export Plug-In . SVG Version: 6.00 Build 0)  -->
<!DOCTYPE svg PUBLIC "-//W3C//DTD SVG 1.1//EN" "http://www.w3.org/Graphics/SVG/1.1/DTD/svg11.dtd">
<svg version="1.1" xmlns="http://www.w3.org/2000/svg" xmlns:xlink="http://www.w3.org/1999/xlink" x="0px" y="0px"
	 width="566.929px" height="566.929px" viewBox="0 0 566.929 566.929" enable-background="new 0 0 566.929 566.929"
	 xml:space="preserve">
<g id="Capa_2">
</g>
<g id="Capa_1">
	<path fill-rule="evenodd" clip-rule="evenodd" fill="#F28E2D" d="M47.965,278.9c1.162-4.953,2.093-9.973,3.522-14.846
		c8.658-29.516,27.237-51.228,54.722-64.078c65.632-30.688,134.347,10.626,146.133,73.038c1.083,5.738,1.661,11.518,1.823,17.361
		c0.077,2.746-0.738,3.588-3.6,3.758c-41.186,2.457-66.609,32.66-74.007,59.52c-3.286,11.93-3.441,24.016-2.107,36.143
		c0.348,3.16-0.177,3.758-3.26,4.234c-18.002,2.781-35.727,3.016-53.246-3.119c-23.53-8.24-42.101-22.871-55.387-43.703
		c-7.067-11.08-11.565-23.559-13.52-36.75c-0.139-0.938,0.123-2.057-1.073-2.557C47.965,298.232,47.965,288.566,47.965,278.9z"/>
	<path fill-rule="evenodd" clip-rule="evenodd" fill="#F28E2D" d="M538.965,255.899c-2.559,5.978-2.336,12.526-3.834,18.739
		c-2.501,10.373-5.788,20.436-9.836,30.311c-5.105,12.451-14.535,21.836-22.444,32.26c-34.083,44.924-80.374,62.486-135.519,59.447
		c-7.938-0.438-15.838-1.865-23.624-3.758c-3.002-0.73-3.935-1.936-3.437-5.053c6.989-43.717-25.99-82.023-60.427-90.283
		c-3.065-0.734-6.17-1.438-9.297-1.738c-2.971-0.285-3.743-1.543-3.803-4.465c-0.66-32.334-13.146-59.378-36.91-81.213
		c-2.357-2.166-3.158-4.077-2.341-7.338c12.553-50.078,43.697-84.584,89.343-106.961c14.211-6.966,29.511-10.021,45.085-11.947
		c1.064-0.132,2.404,0.465,3.044-1c10.667,0,21.333,0,32,0c0.639,1.464,1.979,0.868,3.042,1c15.564,1.928,30.84,5.006,45.062,11.931
		c47.376,23.066,78.327,59.511,90.521,111.245c1.391,5.902,1.112,12.102,3.376,17.824
		C538.965,235.232,538.965,245.566,538.965,255.899z"/>
	<circle fill="#F28E2D" cx="256.965" cy="379.9" r="71"/>
</g>
</svg>
